<?xml version="1.0" encoding="UTF-8"?>
<!-- Generator: Adobe Illustrator 16.0.0, SVG Export Plug-In . SVG Version: 6.00 Build 0)  -->
<!DOCTYPE svg PUBLIC "-//W3C//DTD SVG 1.1//EN" "http://www.w3.org/Graphics/SVG/1.1/DTD/svg11.dtd">
<svg version="1.1" xmlns="http://www.w3.org/2000/svg" xmlns:xlink="http://www.w3.org/1999/xlink" x="0px" y="0px" width="314px" height="336px" viewBox="0 0 314 336" enable-background="new 0 0 314 336" xml:space="preserve">
<g id="Layer_1">
	<path fill="#FFFFFF" stroke="#727375" stroke-width="5.0863" stroke-miterlimit="10" d="M153.238,171.322   c0,0,9.229-2.27,16.557,2.41"/>
	<g>
		<g>
			<path fill="#727375" d="M155.867,23.835c11.545,0,21.457,1.728,29.045,3.396c21.566,4.742,35.457,31.258,42.182,46.77     c7.902-0.067,16.256-1.872,22.753-1.871c4.214,0,7.647,0.759,9.669,3.242c14.129,17.354-0.656,56.936-14.197,67.959     c-8.275,6.738-26.934,8.809-44.693,12.773l-18.371,88.725l0.658,1.172h78.709c15.717,0.105,25.588,9.146,27.16,23.303     c1.463,13.141-3.254,25.949-18.693,27.666L152.76,309.68L26.93,252.594c0,0,20.508-41.977,43.949-86.391     c-9.199-39.625-5.512-101.998,8.754-113.609C107.761,29.696,134.592,23.835,155.867,23.835 M155.867,11.835     c-29.975,0-58.173,10.582-83.811,31.453c-9.645,7.85-15.557,26.274-17.57,54.759c-1.594,22.541-0.194,46.977,3.74,66.428     c-22.414,42.638-41.879,82.442-42.079,82.852c-1.423,2.913-1.606,6.278-0.51,9.329c1.097,3.05,3.382,5.527,6.335,6.867     l125.83,57.086c1.561,0.708,3.252,1.072,4.957,1.072c0.431,0,0.861-0.023,1.293-0.07l117.328-12.711     c10.922-1.214,19.711-6.708,24.779-15.471c4.049-7,5.621-15.802,4.547-25.453c-2.275-20.494-17.586-33.831-39.006-33.975     c-0.026,0-0.053,0-0.08,0H196.75l14.031-67.766c1.586-0.317,3.166-0.626,4.729-0.932c15.42-3.019,28.736-5.625,37.386-12.667     c8.794-7.159,17.228-21.992,21.484-37.788c5.252-19.489,3.278-36.199-5.559-47.053c-6.239-7.665-15.824-7.666-18.974-7.666     c-3.858,0-7.951,0.483-11.909,0.952c-1.126,0.133-2.265,0.268-3.399,0.392c-12.924-26.484-28.728-41.933-47.05-45.962     C180.312,13.933,169.227,11.835,155.867,11.835L155.867,11.835z"/>
		</g>
	</g>
	
		<polyline fill="none" stroke="#727375" stroke-width="18" stroke-linecap="round" stroke-linejoin="round" stroke-miterlimit="10" points="   150,76 150,133 113,133  "/>
	<g>
		<g>
			<path fill="#727375" d="M133.449,194.711c0.867-5.953,3.801-11.092,7.961-14.811l-74.051-15.15l-13.887,24.09l80.809,16.582     C133.254,202.055,132.908,198.424,133.449,194.711z"/>
			<path fill="#727375" d="M202.461,192.391l-22.301-4.562c1.979,4.217,2.795,9.033,2.074,13.984     c-0.689,4.721-2.695,8.914-5.559,12.311l18.486,3.793L202.461,192.391z"/>
		</g>
		<path fill="none" stroke="#727375" stroke-width="6" stroke-miterlimit="10" d="M161.385,173.871    c13.475,1.961,22.807,14.473,20.85,27.941c-1.971,13.475-14.477,22.809-27.943,20.842c-13.469-1.963-22.799-14.473-20.842-27.943    C135.414,181.244,147.914,171.92,161.385,173.871z"/>
	</g>
	<path fill="#727375" d="M161.455,208.174c4.393,0.639,8.576-2.262,9.217-6.654c0.639-4.393-2.527-8.492-6.922-9.131l-17.809-2.592   l-1.012,6.943l1.164,0.17C153.783,198.027,154.025,207.092,161.455,208.174z M161.707,206.434   c-6.012-0.875-6.961-9.66-14.586-11.418l0.449-3.078l10.732,1.561l-0.557,3.82c0.986-1.791,3.492-3.393,5.734-3.066   c3.365,0.488,5.879,3.646,5.393,7.004C168.383,204.623,165.07,206.924,161.707,206.434z"/>
	<g opacity="0.8">
		<path fill="#A1DC00" d="M158.303,155.832c-23.025,0-41.691,18.664-41.691,41.691c0,23.023,18.666,41.689,41.691,41.689    s41.689-18.666,41.689-41.689C199.992,174.496,181.328,155.832,158.303,155.832z M158.303,229.559    c-17.695,0-32.037-14.344-32.037-32.035c0-17.693,14.342-32.035,32.037-32.035c17.691,0,32.037,14.342,32.037,32.035    C190.34,215.215,175.994,229.559,158.303,229.559z"/>
	</g>
</g>
<g id="dial">
</g>
<g id="daily_graph">
</g>
<g id="events">
</g>
<g id="insights">
</g>
</svg>