<?xml version="1.0" encoding="UTF-8"?>
<!-- Generator: Adobe Illustrator 16.0.0, SVG Export Plug-In . SVG Version: 6.00 Build 0)  -->
<!DOCTYPE svg PUBLIC "-//W3C//DTD SVG 1.1//EN" "http://www.w3.org/Graphics/SVG/1.1/DTD/svg11.dtd">
<svg version="1.1" xmlns="http://www.w3.org/2000/svg" xmlns:xlink="http://www.w3.org/1999/xlink" x="0px" y="0px" width="314px" height="336px" viewBox="0 0 314 336" enable-background="new 0 0 314 336" xml:space="preserve">
<g id="Layer_1">
	<g>
		<g>
			<path fill="#A1DC00" d="M59.645,239.158l0.961,15.711c0.07,0.045,0.143,0.174,0.143,0.174l0.061-0.174     c-0.18-0.107-1.186,0.33-6.326,4.742c-9.533,8.18-26.674-2.898-28.748-15.621c-8.879,3.537-14.453,8.658-14.453,14.357     c0,10.674,19.049,19.328,43.205,19.328c4.547,0,8.514-0.307,12.514-0.875v-36.9C65,239.549,62.361,239.297,59.645,239.158z"/>
			<path fill="none" d="M60.875,254.869l0.008,0.174C60.883,255.043,60.945,254.914,60.875,254.869z"/>
			<path fill="#A1DC00" d="M196.859,295.203c-15.584-0.055-20.34-8.355-22.137-15.553l-0.043-0.102     c-11.367,3.291-16.891,8.967-16.891,15.42c0,10.178,18.664,18.43,41.699,18.43s41.816-8.252,41.816-18.43     c0-7.451-9.305-13.865-23.305-16.77v1.451C218,287.357,215.467,295.148,196.859,295.203z"/>
		</g>
		
			<polyline fill="none" stroke="#727375" stroke-width="12" stroke-linecap="round" stroke-linejoin="round" stroke-miterlimit="10" points="    221,70 221,98 199,98   "/>
	</g>
	<g>
		<path fill="#727375" d="M208.934,139.443c0.711-4.871,3.801-8.809,7.918-10.809l-51.355-24.885l-8.057,16.012l51.439,23.242    C208.756,141.844,208.758,140.652,208.934,139.443z"/>
		<path fill="#727375" d="M248.98,144.203l-11.941-5.787c0.365,1.646,0.459,3.381,0.201,5.15c-0.59,4.027-2.811,7.408-5.885,9.594    l17.455,7.887L248.98,144.203z"/>
	</g>
	<g>
		<path fill="#727375" d="M204.557,37.609c52.189,0,70.943,17.883,70.943,35.09c0,13.568,0,11.295,0,17.133c4.5,0,7.34,0,12.738,0    c14.396,0-0.9,44.396-18.896,44.396c-19.105,0-3.861,0-23.67,0l-0.172,33.518c0,0,34.949,47.992,40.938,56.27    c9.299,12.847-5.729,29.647-18.281,29.647c-2.832,0-5.538-0.855-7.811-2.806c-7.205-6.182-42.846-41.391-42.846-41.391v70.184    c-0.346,7.707-2.145,13.498-20.752,13.553c-15.584-0.055-18.283-6.355-20.08-13.553L167.666,216h-51.287l-8.998,63.65    c-1.799,7.197,0.113,13.498-19.795,13.498c-17.096,0-20.346-6.318-19.586-13.498v-95.373c0,0-28.746-47.838-28.221-48.592    c0.273-0.391,0.517-0.506,0.701-0.506c0.172,0,0.293,0.098,0.344,0.168c8.965,5.85,38.16,23.393,38.16,23.393l86.516-41.049    c0,0,0-43.529,0-50.277C165.5,52.738,178.465,37.609,204.557,37.609 M204.557,25.609c-33.52,0-51.057,21.03-51.057,41.805v42.688    l-73.84,35.035c-8.64-5.216-25.085-15.185-31.779-19.515c-2.115-1.564-4.707-2.443-7.4-2.443c-4.195,0-8.036,2.053-10.537,5.633    c-4.303,6.173-1.188,12.015,0.309,14.822c0.762,1.43,1.84,3.364,3.294,5.911c2.349,4.113,5.65,9.772,9.815,16.822    C48.357,174.826,53.434,183.315,56,187.6v91.495c-0.701,8.509,2.492,14.038,5.34,17.203c5.358,5.956,13.943,8.851,26.246,8.851    c10.846,0,17.93-1.723,22.966-5.585c6.173-4.734,7.347-11.107,8.048-14.915c0.141-0.767,0.273-1.492,0.424-2.088    c0.101-0.406,0.181-0.816,0.239-1.23l7.538-53.33h30.443l7.541,53.331c0.06,0.413,0.139,0.822,0.24,1.226    c2.621,10.501,8.592,22.565,31.681,22.646c0.013,0,0.026,0,0.038,0c0.014,0,0.026,0,0.039,0    c11.85-0.035,19.561-2.132,25.002-6.798c7.161-6.143,7.541-14.604,7.703-18.217c0.008-0.179,0.012-0.358,0.012-0.538v-41.594    c9.474,9.233,19.383,18.778,23.031,21.909c4.344,3.728,9.748,5.698,15.625,5.698c11.697,0,23.955-8.008,29.811-19.475    c5.082-9.954,4.424-20.6-1.809-29.209c-5.027-6.948-30.725-42.243-38.639-53.112l0.091-17.639h11.731    c10.215,0,19.951-6.727,27.415-18.941c5.665-9.269,9.184-20.42,9.184-29.102c0-4.872-1.076-9.051-3.198-12.422    c-3.174-5.041-8.461-7.931-14.504-7.931H287.5v-5.133c0-13.836-7.742-26.028-21.799-34.33    C251.365,29.902,230.793,25.609,204.557,25.609L204.557,25.609z"/>
	</g>
	<path fill="none" stroke="#727375" stroke-width="12" stroke-linecap="round" stroke-linejoin="round" stroke-miterlimit="10" d="   M58.084,191.209c0,0-23.674,33.281-29.662,41.559c-11.396,15.746,13.752,37.434,26.094,26.844c7.203-6.182,6.367-4.568,6.367-4.568   "/>
	<g>
		<path fill="none" stroke="#727375" stroke-width="6" stroke-miterlimit="10" d="M225.143,127.354    c7.818,1.137,13.234,8.398,12.098,16.213c-1.145,7.816-8.402,13.234-16.215,12.094c-7.814-1.141-13.229-8.398-12.092-16.217    C210.072,131.631,217.326,126.221,225.143,127.354z"/>
	</g>
</g>
<g id="dial">
</g>
<g id="daily_graph">
</g>
<g id="events">
</g>
<g id="insights">
</g>
</svg>