<?xml version="1.0" encoding="UTF-8"?>
<!-- Generator: Adobe Illustrator 16.0.0, SVG Export Plug-In . SVG Version: 6.00 Build 0)  -->
<!DOCTYPE svg PUBLIC "-//W3C//DTD SVG 1.1//EN" "http://www.w3.org/Graphics/SVG/1.1/DTD/svg11.dtd">
<svg version="1.1" xmlns="http://www.w3.org/2000/svg" xmlns:xlink="http://www.w3.org/1999/xlink" x="0px" y="0px" width="314px" height="336px" viewBox="0 0 314 336" enable-background="new 0 0 314 336" xml:space="preserve">
<g id="Layer_1">
	<g>
		<g>
			<g>
				<path fill="#727375" d="M220,30c6,0,10,5,10,10v254c0,5-5,10-10,10H93c-4.752,0-10-5-10-10V40c0-5,5-10,10-10H220 M93,248h127      V56H93V248 M220,18H93c-11.72,0-22,10.28-22,22v254c0,11.514,10.486,22,22,22h127c11.72,0,22-10.28,22-22V40      C242,27.869,232.131,18,220,18L220,18z M105,68h103v168H105V68L105,68z"/>
			</g>
		</g>
		<g>
			<path fill="#727375" d="M145.902,50c-3.5,0-6.34-2.609-6.34-6.121c0-3.5,2.84-5.879,6.34-5.879H168.1     c3.5,0,6.346,2.379,6.346,5.879c0,3.512-2.846,6.121-6.346,6.121H145.902z"/>
			<g>
				<path fill="#727375" d="M172.23,274.611c0,8.412-6.818,15.229-15.23,15.229c-8.41,0-15.223-6.816-15.223-15.229      c0-8.41,6.812-15.225,15.223-15.225C165.412,259.387,172.23,266.201,172.23,274.611z"/>
			</g>
		</g>
	</g>
	<polyline fill="none" stroke="#A1DC00" stroke-width="12" stroke-linecap="round" stroke-miterlimit="10" points="114.438,201.855    133.195,151.703 151.953,195.588 175.037,111.996 199.744,201.855  "/>
</g>
<g id="dial">
</g>
<g id="daily_graph">
</g>
<g id="events">
</g>
<g id="insights">
</g>
</svg>