<?xml version="1.0" encoding="UTF-8"?>
<!-- Generator: Adobe Illustrator 16.0.0, SVG Export Plug-In . SVG Version: 6.00 Build 0)  -->
<!DOCTYPE svg PUBLIC "-//W3C//DTD SVG 1.1//EN" "http://www.w3.org/Graphics/SVG/1.1/DTD/svg11.dtd">
<svg version="1.1" id="Layer_1" xmlns="http://www.w3.org/2000/svg" xmlns:xlink="http://www.w3.org/1999/xlink" x="0px" y="0px" width="62px" height="620px" viewBox="0 0 62 620" enable-background="new 0 0 62 620" xml:space="preserve">
<path fill="#C8C9CB" d="M31,372c-16.566,0-30,13.434-30,30c0,16.568,13.434,30,30,30c16.57,0,30-13.432,30-30  C61,385.434,47.57,372,31,372z M46.115,395.949c0.014,0.326,0.021,0.652,0.021,0.982c0,9.99-7.607,21.288-21.512,21.288  c-4.27,0-8.244-1.028-11.592-3.173c0.592,0.066,1.193,0.104,1.805,0.104c3.543,0,6.803-1.211,9.389-3.234  c-3.309-0.062-6.1-2.252-7.062-5.25c0.461,0.088,0.936,0.133,1.426,0.133c0.688,0,1.355-0.094,1.992-0.266  c-3.461-0.693-6.77-4.028-6.77-7.688c0-0.033,0-0.066,0-0.094c1.02,0.562,2.887,1.183,4.129,1.22  c-2.031-1.354-4.027-3.954-4.027-6.575c0-1.389,0.371-2.684,1.023-3.801c3.727,4.574,9.777,7.866,16.062,8.181  c0,0.225,0-1.182,0-1.775c0-4.174,3.373-8.051,7.547-8.051c2.176,0,4.143,1.465,5.52,2.934c1.727-0.342,3.342-0.969,4.803-1.838  c-0.564,1.768-1.764,3.246-3.326,4.184c1.531-0.182,2.988-0.588,4.344-1.189C48.875,393.553,47.594,394.889,46.115,395.949z"/>
<path fill="#FFFFFF" d="M31,434c-16.566,0-30,13.434-30,30c0,16.568,13.434,30,30,30c16.57,0,30-13.432,30-30  C61,447.434,47.57,434,31,434z M46.115,457.949c0.014,0.326,0.021,0.652,0.021,0.982c0,9.99-7.607,21.288-21.512,21.288  c-4.27,0-8.244-1.028-11.592-3.173c0.592,0.066,1.193,0.104,1.805,0.104c3.543,0,6.803-1.211,9.389-3.234  c-3.309-0.062-6.1-2.252-7.062-5.25c0.461,0.088,0.936,0.133,1.426,0.133c0.688,0,1.355-0.094,1.992-0.266  c-3.461-0.693-6.77-4.028-6.77-7.688c0-0.033,0-0.066,0-0.094c1.02,0.562,2.887,1.183,4.129,1.22  c-2.031-1.354-4.027-3.954-4.027-6.575c0-1.389,0.371-2.684,1.023-3.801c3.727,4.574,9.777,7.866,16.062,8.181  c0,0.225,0-1.182,0-1.775c0-4.174,3.373-8.051,7.547-8.051c2.176,0,4.143,1.465,5.52,2.934c1.727-0.342,3.342-0.969,4.803-1.838  c-0.564,1.768-1.764,3.246-3.326,4.184c1.531-0.182,2.988-0.588,4.344-1.189C48.875,455.553,47.594,456.889,46.115,457.949z"/>
<g>
	<path fill="#C8C9CB" d="M31,248c-16.564,0-29.999,13.431-29.999,30.001c0,12.283,7.386,22.838,17.957,27.475   c-0.084-2.093-0.016-4.607,0.521-6.888c0.577-2.436,3.864-16.345,3.864-16.345s-0.565-1.916-0.565-4.748   c0-4.444,2.181-7.765,5.39-7.765c2.729,0,4.046,2.047,4.046,4.503c0,2.742-1.747,6.845-2.646,10.646   c-0.755,3.185,0.741,5.079,4.732,5.079c5.686,0,10.758-6.367,10.758-15.016c0-6.574-5.675-12.883-13.729-12.883   c-9.1,0-15.783,7.516-15.783,15.549c0,2.614,1.784,4.428,2.992,5.854c0.554,0.657,0.928,0.92,0.726,1.673   c-0.141,0.553-0.771,1.881-0.906,2.409c-0.199,0.761-0.827,1.057-1.502,0.751C14,287,10.713,281.99,10.713,276.83   c0-10.755,7.187-19.124,21.438-19.124c12.593,0,19.183,7.198,19.183,17.569c0,13.393-6.73,20.927-16.374,20.927   c-3.96,0-6.286-2.117-7.329-4.104c0,0-1.744,6.91-2.112,8.245c-0.634,2.314-1.883,4.625-3.019,6.429   C25.198,307.566,28.051,308,31,308c16.568,0,29.999-13.431,29.999-29.999C60.999,261.431,47.568,248,31,248z"/>
</g>
<g>
	<path fill="#FFFFFF" d="M31,310c-16.564,0-29.999,13.43-29.999,30.001c0,12.283,7.386,22.838,17.957,27.475   c-0.084-2.092-0.016-4.607,0.521-6.888c0.577-2.436,3.863-16.345,3.863-16.345s-0.564-1.916-0.564-4.748   c0-4.444,2.181-7.765,5.39-7.765c2.728,0,4.046,2.047,4.046,4.503c0,2.742-1.747,6.845-2.646,10.646   c-0.756,3.186,0.741,5.016,4.731,5.016c5.687,0,10.759-6.305,10.759-14.953c0-6.574-5.675-12.884-13.729-12.884   c-9.101,0-15.785,7.516-15.785,15.549c0,2.614,1.786,4.428,2.993,5.854c0.554,0.657,0.928,0.92,0.727,1.673   c-0.142,0.553-0.771,1.881-0.907,2.408c-0.199,0.761-0.815,1.029-1.502,0.751c-4.19-1.71-6.143-6.303-6.143-11.463   c0-10.755,7.187-19.124,21.438-19.124c12.593,0,19.119,7.198,19.119,17.569c0,13.393-6.668,20.958-16.311,20.958   c-3.96,0-6.286-2.148-7.329-4.135c0,0-1.744,6.91-2.112,8.245c-0.633,2.314-1.883,4.625-3.019,6.429   C25.198,369.566,28.05,370,31,370c16.568,0,29.999-13.43,29.999-29.999C60.999,323.43,47.568,310,31,310z"/>
</g>
<g>
	<rect x="38" y="141" fill="#C8C9CB" width="5.939" height="5.999"/>
	<path fill="#C8C9CB" d="M30.992,159.916c3.284,0,5.947-2.674,5.947-5.958c0-1.298-0.41-2.496-1.117-3.474   c-1.081-1.499-2.843-2.484-4.83-2.484c-1.988,0-3.747,0.985-4.831,2.484c-0.704,0.978-1.127,2.177-1.127,3.475   C25.034,157.243,27.708,159.916,30.992,159.916z"/>
	<path fill="#C8C9CB" d="M31.001,124C14.433,124,1,137.43,1,153.999s13.433,30,30.001,30c16.567,0,29.938-13.432,29.938-30   S47.568,124,31.001,124z M47,151.017v13.982c0,3.587-1.573,5.001-5.162,5.001H20.161c-3.588,0-5.222-1.414-5.222-5.001v-13.982   v-8.018c0-3.587,2.508-5,6.096-5h20.803c3.589,0,5.162,1.413,5.162,5V151.017z"/>
	<path fill="#C8C9CB" d="M40.106,154.643c0,4.356-4.167,8.564-9.113,8.564c-5.054,0-9.179-4.208-9.179-8.809   c0-1.684-0.017-2.314,0.417-3.382h-4.135v13.783c0,1.78,0.286,2.2,2.064,2.2h21.677c1.781,0,2.047-0.42,2.047-2.2v-13.783h-4.218   C40.103,152.084,40.106,153.42,40.106,154.643z"/>
</g>
<g>
	<rect x="38.061" y="203.031" fill="#FFFFFF" width="5.939" height="5.968"/>
	<path fill="#FFFFFF" d="M31.053,221.916c3.284,0,5.947-2.674,5.947-5.958c0-1.298-0.41-2.496-1.117-3.474   c-1.081-1.499-2.843-2.484-4.83-2.484c-1.988,0-3.747,0.985-4.831,2.484c-0.704,0.978-1.127,2.177-1.127,3.475   C25.095,219.243,27.769,221.916,31.053,221.916z"/>
	<path fill="#FFFFFF" d="M31.062,186c-16.568,0-30.001,13.43-30.001,29.999s13.433,30,30.001,30c16.567,0,29.938-13.432,29.938-30   S47.629,186,31.062,186z M47.061,213.017v13.982c0,3.587-1.573,5.032-5.161,5.032H20.222c-3.588,0-5.222-1.445-5.222-5.032v-13.982   v-8.018c0-3.587,2.508-5,6.096-5h20.804c3.588,0,5.161,1.413,5.161,5V213.017z"/>
	<path fill="#FFFFFF" d="M40.167,216.643c0,4.388-4.167,8.564-9.113,8.564c-5.054,0-9.179-4.176-9.179-8.809   c0-1.684-0.017-2.314,0.417-3.367H18v13.768c0,1.78,0.443,2.2,2.222,2.2h21.678c1.78,0,2.046-0.42,2.046-2.2v-13.768h-4.218   C40.163,214.084,40.167,215.42,40.167,216.643z"/>
</g>
<g>
	<path fill="#C8C9CB" d="M25.478,523.626c0.767,0,1.412-0.303,1.912-0.873c0.785-0.894,1.132-2.359,0.927-3.918   c-0.366-2.785-2.354-5.099-4.431-5.16l-0.083-0.001c-0.735,0-1.391,0.301-1.891,0.872c-0.774,0.883-0.977,2.279-0.771,3.833   c0.363,2.782,2.269,5.185,4.303,5.247H25.478z"/>
	<path fill="#C8C9CB" d="M28.106,531.775c-0.209-0.141-0.427-0.29-0.649-0.442c-0.657-0.201-1.353-0.308-2.064-0.315h-0.089   c-3.274,0-6.147,1.984-6.147,4.247c0,2.459,2.459,4.387,5.602,4.387c4.144,0,6.243-1.428,6.243-4.245   c0-0.267-0.033-0.542-0.097-0.818C30.625,533.493,29.622,532.812,28.106,531.775z"/>
	<path fill="#C8C9CB" d="M31,496c-16.568,0-29.938,13.274-29.938,29.844c0,16.568,13.433,30.001,30.001,30.001   c16.567,0,29.937-13.433,29.937-30.001C61,509.274,47.567,496,31,496z M28.334,542.604c-1.195,0.346-2.486,0.521-3.843,0.521   c-1.507,0-2.96-0.174-4.312-0.517c-2.62-0.66-4.939-2.197-5.842-3.811c-0.389-0.698-0.587-1.442-0.587-2.213   c0-0.795,0.191-1.6,0.564-2.396c1.437-3.059,5.601-5.267,9.789-5.267c0.043,0,0.082,0,0.122-0.001   c-0.342-0.599-0.32-1.22-0.32-1.872c0-0.327-0.145-0.658-0.059-0.993c-4.395-0.103-8.056-3.16-8.056-7.403   c0-3.402,2.768-6.073,6.191-7.255c1.025-0.354,2.071-0.554,3.1-0.554h9.396c0.32,0,0.602,0.227,0.702,0.531   c0.101,0.306-0.01,0.639-0.271,0.827l-2.1,1.521c-0.126,0.092-0.278,0.141-0.436,0.141h-0.752c0.972,1.164,1.542,2.821,1.542,4.688   c0,2.06-1.042,4.007-2.937,5.489c-1.465,1.14-1.522,1.452-1.522,2.106c0.019,0.357,1.039,1.525,2.163,2.319   c2.622,1.855,3.317,3.672,3.317,6.709C34.188,538.343,32.06,541.522,28.334,542.604z M51.062,526.18c0,0.408-0.333,0.82-0.74,0.82   H45v5.261c0,0.408-0.349,0.739-0.757,0.739h-1.521c-0.409,0-0.723-0.331-0.723-0.739V527h-5.359c-0.406,0-0.738-0.412-0.738-0.82   v-1.521c0-0.407,0.332-0.658,0.738-0.658H42v-5.422c0-0.409,0.313-0.74,0.723-0.74h1.521c0.408,0,0.757,0.331,0.757,0.74V524h5.322   c0.407,0,0.74,0.251,0.74,0.658V526.18z"/>
</g>
<g>
	<path fill="#FFFFFF" d="M25.478,585.781c0.767,0,1.412-0.303,1.912-0.873c0.785-0.894,1.132-2.359,0.927-3.918   c-0.366-2.785-2.354-5.099-4.431-5.16l-0.083-0.001c-0.735,0-1.391,0.301-1.891,0.872c-0.774,0.883-0.977,2.279-0.771,3.833   c0.363,2.782,2.269,5.185,4.303,5.247H25.478z"/>
	<path fill="#FFFFFF" d="M28.106,593.931c-0.209-0.141-0.427-0.29-0.649-0.442c-0.657-0.201-1.353-0.308-2.064-0.315h-0.089   c-3.274,0-6.147,1.984-6.147,4.247c0,2.459,2.459,4.387,5.602,4.387c4.144,0,6.243-1.428,6.243-4.245   c0-0.267-0.033-0.542-0.097-0.818C30.625,595.648,29.622,594.967,28.106,593.931z"/>
	<path fill="#FFFFFF" d="M31,558.155c-16.568,0-29.938,13.274-29.938,29.844C1.062,604.567,14.495,618,31.063,618   C47.631,618,61,604.567,61,587.999C61,571.43,47.567,558.155,31,558.155z M28.334,604.759c-1.195,0.346-2.486,0.521-3.843,0.521   c-1.507,0-2.96-0.174-4.312-0.517c-2.62-0.66-4.939-2.197-5.842-3.811c-0.389-0.698-0.587-1.442-0.587-2.213   c0-0.795,0.191-1.6,0.564-2.396c1.437-3.059,5.601-5.267,9.789-5.267c0.043,0,0.082,0,0.122-0.001   c-0.342-0.599-0.32-1.22-0.32-1.872c0-0.327-0.145-0.658-0.059-0.993c-4.395-0.103-8.056-3.16-8.056-7.403   c0-3.402,2.768-6.073,6.191-7.255c1.025-0.354,2.071-0.554,3.1-0.554h9.396c0.32,0,0.602,0.227,0.702,0.531   c0.101,0.306-0.01,0.639-0.271,0.827l-2.1,1.521c-0.126,0.092-0.278,0.141-0.436,0.141h-0.752c0.972,1.164,1.542,2.821,1.542,4.688   c0,2.06-1.042,4.007-2.937,5.489c-1.465,1.14-1.522,1.452-1.522,2.106c0.019,0.357,1.039,1.525,2.163,2.319   c2.622,1.855,3.317,3.672,3.317,6.709C34.188,600.498,32.06,603.678,28.334,604.759z M51.062,588.18c0,0.408-0.333,0.82-0.74,0.82   H45v5.261c0,0.408-0.349,0.739-0.757,0.739h-1.521c-0.409,0-0.723-0.331-0.723-0.739V589h-5.359c-0.406,0-0.738-0.412-0.738-0.82   v-1.521c0-0.407,0.332-0.658,0.738-0.658H42v-5.267c0-0.409,0.313-0.74,0.723-0.74h1.521c0.408,0,0.757,0.331,0.757,0.74V586h5.322   c0.407,0,0.74,0.251,0.74,0.658V588.18z"/>
</g>
<path fill="#FFFFFF" d="M31,62C14.432,62,1,75.435,1,92.001C1,108.57,14.432,122,31,122s30-13.43,30-29.999  C61,75.435,47.568,62,31,62z M38,93h-4.869c0,8.302,0,18.076,0,18.076H26c0,0,0-9.668,0-18.076h-4v-7h4v-4.231  C26,78.735,26.669,74,33,74h6v6c0,0-3.564,0-4.238,0c-0.675,0-1.631,0.712-1.631,2.155V86H39L38,93z"/>
<path fill="#C8C9CB" d="M31,0.083c-16.568,0-30,13.352-30,29.917C1,46.57,14.432,60,31,60s30-13.43,30-29.999  C61,13.435,47.568,0.083,31,0.083z M38,31h-4.869c0,8.302,0,18.076,0,18.076H26c0,0,0-9.668,0-18.076h-4v-7h4v-4.231  C26,16.735,26.669,12,33,12h6v6c0,0-3.564,0-4.238,0c-0.675,0-1.631,0.712-1.631,2.155V24H39L38,31z"/>
</svg>